<?xml version="1.0" encoding="UTF-8"?>
<svg id="Layer_1" data-name="Layer 1" xmlns="http://www.w3.org/2000/svg" version="1.1" viewBox="0 0 256 256">
  <path d="M15.3119707,7.0214174h225.4053657c4.5600487,0,8.2622296,3.702181,8.2622296,8.2622296v225.4053657c0,4.5600487-3.702181,8.2622296-8.2622296,8.2622296H15.3119707c-4.5605914,0-8.263213-3.7026216-8.263213-8.263213V15.2846304c0-4.5605914,3.7026216-8.263213,8.263213-8.263213Z" fill="#fff" stroke-width="0"/>
  <path d="M148.643453,150.1462046l-87.1312378,15.974166c-7.3042549,1.3391223-14.5088909-2.5839789-16.0920049-8.7624917L17.4889016,48.348708c-1.583114-6.1785128,3.054787-12.2727601,10.3590419-13.6118824l87.1312378-15.974166c7.3042549-1.3391223,14.5088909,2.5839789,16.0920049,8.7624917l27.9313087,109.0091709c1.583114,6.1785128-3.054787,12.2727601-10.3590419,13.6118824Z" fill="#00aa29" stroke="#231f20" stroke-miterlimit="10" stroke-width="6"/>
  <path d="M170.3505971,165.6229257l-88.7492319,7.1804309c-7.4398921.6019391-14.0479935-4.0117763-14.7596076-10.3050218l-12.5551989-111.0334299c-.711614-6.2932454,4.742733-11.8828969,12.1826252-12.484836l88.7492319-7.1804309c7.4398921-.6019391,14.0479935,4.0117763,14.7596076,10.3050218l12.5551989,111.0334299c.711614,6.2932454-4.742733,11.8828969-12.1826252,12.484836Z" fill="#55ff61" stroke="#231f20" stroke-miterlimit="10" stroke-width="6"/>
  <g>
    <path d="M97.1552922,53.2218516c-2.4096046,0-4.3696507,1.6582645-4.3696507,3.6958905v137.1382346c0,2.0376259,1.9600461,3.6958905,4.3696507,3.6958905h114.0364382c2.4096046,0,4.3696507-1.6582645,4.3696507-3.6958905v-119.6208428l-28.1693395-21.2132824h-90.2367494Z" fill="#9fffb1" stroke-width="0"/>
    <path d="M195.6773138,50.2593753c-3.2539581-2.4559527-7.4615745-3.81457-11.8225562-3.8174414l-86.6994654-.0570852c-6.8660814,0-12.4523743,4.7253256-12.4523743,10.5328933v137.1382346c0,5.8171564,5.5749573,10.5328933,12.4520156,10.5328933h114.036797c6.8772564,0,12.4523743-4.7158728,12.4523743-10.5331968v-119.8561236c0-1.8213435-.9194828-3.5560065-2.5271437-4.767618l-25.4396473-19.1725563ZM190.6238932,55.6556826l20.8227992,15.6808275h-16.4531485c-2.4096046,0-4.3696507-1.6582645-4.3696507-3.6964975v-11.98433ZM215.5613811,194.0559768c0,2.0376259-1.9600461,3.6958905-4.3696507,3.6958905h-114.0364382c-2.4096046,0-4.3696507-1.6582645-4.3696507-3.6958905V56.9177421c0-2.0376259,1.9600461-3.6958905,4.3696507-3.6958905h85.3858774v14.418161c0,5.8081747,5.5862929,10.5335003,12.4523743,10.5335003h20.5678372v115.8824638Z" fill="#231f20" stroke-width="0"/>
    <rect x="110.8047636" y="123.7887763" width="92.4928795" height="7.4371911" rx="3.1025148" ry="3.1025148" fill="#231f20" stroke-width="0"/>
    <rect x="110.8047636" y="106.3048112" width="92.4928795" height="7.4371911" rx="3.1025148" ry="3.1025148" fill="#231f20" stroke-width="0"/>
    <rect x="110.8047636" y="88.7229195" width="92.4928795" height="7.4371911" rx="3.1025148" ry="3.1025148" fill="#231f20" stroke-width="0"/>
    <rect x="110.8047636" y="71.320583" width="60.3228939" height="7.4371911" rx="3.1025148" ry="3.1025148" fill="#231f20" stroke-width="0"/>
  </g>
  <g>
    <path d="M125.5616228,243.12462c-29.674103,0-59.3465501-.0019687-89.0206531-.0059062-13.2817712-.002625-21.5338228-6.5512517-21.5363067-17.0911349-.0066235-31.4306522-.0057956-62.8613044.000414-94.2919565.0016559-8.969499,6.4094771-14.1433013,17.5804219-14.1958006,4.4369163-.0203435,8.8754885-.0131248,13.3136467-.0059062,5.9247198.0104999,12.0514562.0203435,18.0593837-.0406869.1039061-.0006562.2082262-.0013125.3117184-.0013125,5.3633782,0,9.8048482,1.4260112,13.5698934,4.3554701,8.8837679,6.9082467,16.0980001,12.4705436,22.7036983,17.5039103,2.4548343,1.8709425,4.6650131,3.3875149,6.7567968,4.6369974,2.6887266,1.6058212,5.815432,2.3867477,9.5577089,2.3867477h.0612674c13.8799559-.0321558,36.0984829.0157498,57.5846994.0623429,14.5514131.0308433,28.3419518.0603742,37.9439553.0610304,9.4703615-.1693101,16.3616981,1.5270723,21.042028,5.1580525,4.6318956,3.5929183,6.8801595,8.9412806,6.873122,16.3495828l.0045537,14.1308327c.0062095,15.7583099.0149029,37.3407567-.0049676,43.6603554-.0339454,10.6829437-8.3613394,17.3201629-21.7321138,17.3214754-31.0228129.0039374-62.0468678.0059062-93.0692668.0059062Z" fill="#231f20" stroke-width="0"/>
    <path d="M174.4790599,153.8292843c-21.4733834-.0465931-43.6794914-.0944987-57.5329533-.0623429h-.0869334c-5.7620301,0-10.865436-1.3032942-15.1707102-3.8751018-2.392739-1.4286362-4.8815187-3.1335497-7.6083304-5.2118643-6.6284665-5.0510853-13.8646391-10.6297882-22.7720032-17.5570658-2.0288605-1.5776028-4.2510444-2.259437-7.230377-2.2377811-6.0770602.0610304-12.2381561.051843-18.1984772.0406869-2.2743439-.0039374-4.5491018-.0072186-6.8234458-.0072186-2.1389762,0-4.2771244.0032812-6.4156866.0131248-5.9785357.0275621-8.3083514,1.9359103-8.3091794,6.8052169-.0062095,31.4293397-.0070375,62.8599919-.000414,94.2893316.0016559,6.5256583,3.9964536,9.6992387,12.2124901,9.7005512,60.69526.0078749,121.3909341.0078749,182.0861941,0,8.2123107-.0013125,12.3871848-3.3481405,12.4078833-9.947954.0198705-6.3090989.0111772-27.8856395.0049676-43.6393557l-.0045537-14.1380514c.0049676-5.3148941-1.3263557-8.9334057-4.0701401-11.0622508-2.80174-2.1734695-7.5069081-3.1735804-14.3647132-3.0495509l-.1039061.0006562c-9.6102829,0-23.4326972-.0301871-38.0197116-.0610304Z" fill="#f8b300" stroke-width="0"/>
    <text transform="translate(37.8085938 219.5361328) scale(1.0124465 1)" fill="#231f20" font-family="Calibri-Bold, Calibri" font-size="75.3646851" font-weight="700"><tspan x="0" y="0">ECMS</tspan></text>
  </g>
  <path d="M240.716353,256H15.3109873c-8.442677,0-15.3109873-6.8688019-15.3109873-15.3109873V15.283647C0,6.84097,6.8683103-.0273403,15.3109873-.0273403h225.4053657c8.4431687,0,15.3119707,6.8683103,15.3119707,15.3109873v225.4053657c0,8.4421854-6.8688019,15.3109873-15.3119707,15.3109873ZM15.3109873,7.0214174c-4.5559283,0-8.2622296,3.7063013-8.2622296,8.2622296v225.4053657c0,4.5559283,3.7063013,8.2622296,8.2622296,8.2622296h225.4053657c4.5559283,0,8.263213-3.7063013,8.263213-8.2622296V15.283647c0-4.5559283-3.7072847-8.2622296-8.263213-8.2622296H15.3109873Z" fill="#231f20" stroke-width="0"/>
  <path d="M101.0253254,117.3358311c-.3552084-4.9869273-4.0473875-5.8681696-5.6169026-6.0159472-.1351238-.0126537-.4957553-.1197586-.7587722-.1983925-.4627652-.1373834-1.0385101-.3086608-1.6892736-.4121502-.2978147-.0469996-.4094387-.1089125-.4130541-.1089125-.0094903-.0108461-.1491333-.1780561-.2987185-.7312051-.5549567-2.0526166-1.3846801-4.7121605-2.8877631-7.0775051-.7370801-1.1596244-.6078312-1.4145068.0022596-2.2062691.7036381-.9128766,1.2269604-1.8691374,1.6888217-2.7133223.1767004-.3231222.3543046-.6489558.5441106-.9711742l.6857521-1.1668671c.1943073-.3306309.2118387-.7361444.046791-1.0823111l-.5621697-1.1790801-.0198844-.050163c-.1351238-.3506892-.4166694-1.0800867-1.0715002-1.7511865l-.5382357-.553149c-1.0990673-1.1325093-2.2351919-2.3029798-3.4964981-3.4043066-1.6472451-1.4389104-4.094839-1.1971337-5.6688733-.3646987-.6909843.3642468-1.3055943.7515415-1.8998679,1.1261824-.7054457.4446884-1.3715745.8645213-1.9396368,1.0931923-.1071048.0352497-.3529488.0451919-.4252559.0307305-2.8181946-1.0230372-5.5390527-2.1588476-8.0928216-3.3777757-.1543735-.0736833-.28811-.1752357-.3969329-.307213-.1647184-.1997658-.3551031-.4687878-.4957531-.6737711-.0194325-.0935473-.0415766-.212402-.0596533-.3091127-.050163-.2711515-.1075567-.5780045-.2056232-.9594243-.6168696-2.3902002-1.0620099-4.1165311-2.7413413-5.3493665-1.7416962-1.2798349-3.6316219-1.1370285-6.022274-.9571647-.4035638.0302786-.7415993.0474515-1.0258564.0623648-3.2985576.1703735-4.6674205,1.3042385-5.424385,4.4938836-.0628168.2652765-.1373834.5793603-.2354499.9535493l-.1513929.5680623c-.1667582.6213888-.3393912,1.2635658-.4844573,1.9536463-.0397689.189806-.0808935.262565-.0799897.2634688-.0094903.0085865-.1635947.145518-.6923401.3109203-2.1344139.6665807-4.921851,1.6205819-7.5524721,3.0929344-.7818201.4379096-.8342427.4044676-1.4850062-.0027115-2.5831696-1.6160627-4.4486917-2.7851775-6.8386659-2.402402-2.2654705.3615353-3.6361411,1.8804354-5.6851424,4.2046554-.7074794.6747152-1.1203075,1.4795832-1.2260565,2.3793541-.0115239.0777301-.0302786.1572678-.0469996.2381614-.1543304.7452146-.441525,2.1326063.2584977,3.5918531.3820976.7971853.8272379,1.4994676,1.2199556,2.1195006.3832274.6046678.7452146,1.1763454.9117468,1.6282645.1100423.2982666.123148.754253.0820233.9047421-.5486298,1.5826207-1.2192778,3.1412897-1.9290167,4.7916983-.4670584,1.0855097-.9501599,2.2085287-1.4014012,3.351884-.0768262.1947771-.1385132.3104684-.1760225.3723813-.0088124.0018077-.0185287.0040673-.0289228.0063269-1.6946967.352045-3.3252208.8170697-4.8488661,1.3837763-1.7712969.6602538-3.201395,2.4950454-3.4000134,4.3610194-.3563382,3.3310957-.5915621,5.5314899.8062237,7.5343954,1.396656,2.0010978,3.5335555,2.5293912,6.7661329,3.3292881.1324123.0352497.2657284.0664321.4114723.0930953.1640466.0298267.2349979.0519707.2474257.0605572.0232738.0293747.1324123.1807676.2603054.6001486.7235225,2.374383,1.5801352,4.888409,2.9374742,7.1873215.6523452,1.1049422.5913362,1.3810648-.0085865,2.2993644-1.3571131,2.0770202-2.5291653,3.8706872-2.2702156,6.1140136.2490074,2.1561061,1.5970821,3.4842963,3.4630561,5.3222513l.1834792.1807676c3.7204241,3.6677755,7.1193077,1.715033,8.4072771.7063496.3199587-.2503632.804416-.5147359,1.3173442-.7949257.4013042-.2191808.849156-.4632171,1.324123-.7592241.0311824.0144614.0655283.0307305.1039414.0497111l.7768489.3859389c2.1958749,1.0927404,4.4658646,2.2229901,7.0042942,2.9180417,1.0570388.2892282,1.1582687.4437846,1.3779014,1.3864878.6344944,2.7191973,1.1356727,4.8667169,3.0251465,6.2613392,1.2947482.9549051,2.6599959,1.1840281,4.4071151,1.1840281.7153879,0,1.4954003-.0384131,2.3603735-.0813454l.1690177-.0081345c4.3366158-.2142097,5.3416838-3.4124412,5.5726145-4.7781407.0709513-.4193809.2133058-.9164919.3637949-1.4429777.1848349-.6462443.3940735-1.3769975.5332645-2.1737309.0935473-.0460957.2449402-.111624.4785823-.1911618l.2227961-.0763743c2.2675474-.7753873,4.6060764-1.5755988,6.8546012-2.7549615.8709056-.4567944,1.9189299-.412518,2.7548349.1055557,2.2850751,1.4162344,4.0388127,2.3822075,6.2343959,2.0469976,2.3084028-.3524969,3.6682274-1.8903776,5.726267-4.2182129l.0763743-.0863165c2.7860813-3.15078,1.2581428-5.9816013.4713516-7.0535534-.1753446-.2386133-.3728333-.5951775-.5816199-.9729818-.3131799-.5667066-.6683884-1.2093355-1.1582687-1.860099-.2444882-.3249298-.2788341-.4781304-.2797379-.4781304.0004519-.0063269.0149133-.2331903.340747-.7723298,1.4167664-2.3427487,2.3829695-4.6271997,2.871494-6.7909884.2774783-1.2287681.5133801-1.5735823,2.0363475-1.8813392,2.0354437-.4103425,4.5684503-.9210111,6.0290528-3.0716942,1.2839022-1.8908295,1.1248267-4.1183388.9562608-6.4760008ZM93.3084394,123.2548134c-2.798735.5645599-4.2820183,1.8858584-4.9161455,4.6949594-.4480495,1.9848852-1.367253,3.9366391-2.4279919,5.690283-1.1792829,1.9496638-1.2018224,3.5969936.1483707,5.3917056.6547743.870368,1.0691841,1.9204302,1.7146093,2.7993847.6952211.9467705.4496878,1.6058945-.2610963,2.4097457-3.427185,3.8757995-3.4578026,3.9684712-7.8716682,1.2152387-1.8921571-1.1802715-3.4311676-1.2365354-5.4118443-.1350391-2.1906779,1.2182609-4.6238103,2.0353589-7.0111578,2.8522592-1.5590362.5334623-2.6257347,1.2900596-2.9183241,3.0111653-.2113287,1.2432295-.6986387,2.4396288-.9087528,3.682943-.2144639,1.2690171-.8692382,1.6363708-2.1046155,1.6970975-4.9668734.2440928-5.0532465.3046217-6.1740341-4.4993349-.5363997-2.2990255-1.6780039-3.4788733-4.0057545-4.116051-2.4687493-.675732-4.8025161-1.9083697-7.1187992-3.0525723-1.2695255-.6270943-2.3578315-.7444237-3.5601057.0368314-1.0141347.6589545-2.1624612,1.1324245-3.1071981,1.8721879-1.3978705,1.0945763-2.3634804.7180995-3.526353-.4282216-3.1908878-3.1455547-3.3461785-3.1745623-.8758192-6.9555717,1.4251834-2.1812723,1.4126709-3.9783004.0971626-6.2064311-1.1561221-1.9581655-1.9156286-4.191352-2.584017-6.3842612-.5542505-1.8184095-1.5533025-2.8935251-3.3928674-3.2249512-.0566594-.0101964-.1121042-.0272846-.1681139-.0411246-5.1126937-1.2645003-5.3706838-1.3255237-4.8693444-6.1382727.0978117-.9389709.9033092-1.9731472,1.7969213-2.2775989,1.1766074-.4008675,2.3860871-.7240396,3.6017898-.9764479,1.5365815-.3190549,2.345206-1.24837,2.8962648-2.6446589,1.0959603-2.7769582,2.4085029-5.4740114,3.3846482-8.2896934.3516496-1.0142477.2703041-2.3763036-.106201-3.3979233-.5298469-1.4376677-1.5965172-2.66878-2.2674194-4.0679498-.2239542-.4670302.0535807-1.1799043.1246732-1.7776803.0112132-.0941404.1443034-.1736217.2206213-.2602207,3.4548651-3.9196074,3.4955943-3.9847685,7.8916657-1.23453,1.8347633,1.1478463,3.3394845,1.1675895,5.2558475.0950725,2.1378033-1.1963993,4.4995043-2.0564014,6.8489188-2.7900356,1.8006152-.5622721,2.907817-1.5168665,3.2920612-3.3478732.1654306-.7882317.3891871-1.5644592.593737-2.3442174.7921295-3.0199777.185767-2.5156642,3.3813717-2.7559722,3.9265274-.2952726,3.9313008-.2200564,4.911937,3.5807528.1868121.7240027.219209,1.5559292.6137344,2.142266.5968722.8871172,1.3073737,1.8962808,2.2191205,2.3360264,2.6764685,1.2909226,5.4279848,2.4459967,8.2171342,3.475651,1.1993439.4427549,3.1446818.3663222,4.2857305-.2102762,1.192147-.6024196,2.2921257-1.4301856,3.4824744-2.0587791.4237589-.2238129,1.2327223-.3584566,1.5046929-.1209449,1.3427929,1.1725041,2.572719,2.4756976,3.8201569,3.7545439.1842418.1889022.2493181.4940606.3802899.7679235-.6673715,1.1340628-1.2063133,2.3057478-1.9737285,3.3012408-1.6541087,2.1457684-1.6886522,4.1016461-.1944382,6.4525857,1.1508403,1.8106421,1.8718772,3.9632176,2.4381601,6.057326.5547025,2.0513173,1.632473,3.2015079,3.7052,3.5303356.9051375.1435973,1.7753642.5548437,2.6806429.6398892,1.6446749.1544716,2.1626306,1.0588747,2.2722775,2.5931118.3090562,4.3248376.1619565,4.811611-4.0244244,5.6561066Z" fill="#231f20" stroke="#231f20" stroke-miterlimit="10" stroke-width="5"/>
  <path d="M97.3328932,117.5986776c-.1096569-1.5342107-.6276366-2.4386475-2.2723263-2.5930769-.9052588-.0850513-1.7754998-.4963333-2.6805942-.6399121-2.0727408-.3288064-3.1505134-1.479026-3.7052098-3.5303396-.5663142-2.0941132-1.2873319-4.2466443-2.4381543-6.0573264-1.4942059-2.350911-1.4596812-4.3068159.1944342-6.4525517.7673793-.9955162,1.3063478-2.1672178,1.9737152-3.3012711-.1309746-.2738409-.1960782-.5790281-.3803194-.7679274-1.2474367-1.2788377-2.4773371-2.5820071-3.8201276-3.7545307-.2719777-.2375078-1.0809511-.1028616-1.5047277.120946-1.4255402.7528023-2.7215306,1.7912825-4.2014334,2.3862577-.8965455.3604266-2.1483114.3993354-3.0545567.0703098-2.9644637-1.0763478-5.8891419-2.2932603-8.7293168-3.6631774-.9117254-.4397238-1.6222212-1.4488854-2.2191144-2.3360051-.3945129-.5863166-.4269551-1.4183064-.613772-2.1422833-.9806103-3.8007828-.985378-3.8760247-4.9119293-3.5807565-3.1955598.2403027-2.5892408-.2639767-3.3813355,2.7560005-.2045724.7797644-.4283251,1.5559667-.5937696,2.3442253-.3842103,1.8309585-1.491411,2.7855931-3.2920645,3.347852-2.3493766.7336219-4.7110834,1.593615-6.8489278,2.7900319-1.9163385,1.0725117-3.4210662,1.0527833-5.255806-.0950799-4.3960868-2.7501916-4.436804-2.6850331-7.8916825,1.2345584-.0763379.0865857-.2093949.1660472-.2206291.2601955-.071077.59777-.3485896,1.3106771-.1246724,1.7776918.6709295,1.3991809,1.7375774,2.6302868,2.267449,4.067938.3764833,1.0216563.4578081,2.383682.1062045,3.3979402-.9761714,2.8156788-2.2887118,5.5127134-3.3846783,8.2897027-.5510247,1.3962764-1.3596693,2.3255929-2.8962364,2.6446447-1.460558.3032143-2.9120739.7086326-4.3084051,1.2281467-.4472315.166376-.9612655.8125902-1.0118469,1.2855782-.5934408,5.5499781-.5716847,5.5522797,4.7908737,6.8785752.0560067.0138647.1114106.0309078.1680749.0411556,1.839617.3313821,2.8386405,1.4065242,3.3928985,3.2249332.6684086,2.1929195,1.4278966,4.4261178,2.5840347,6.3842696,1.3154996,2.2281018,1.3279943,4.0251384-.0971623,6.2064401-2.4703773,3.7809996-2.3150711,3.8099894.8758307,6.9555707,1.1628238,1.1463287,2.1284735,1.5228121,3.5263391.4282155.9447156-.7397596,2.093072-1.2132408,3.1071657-1.8722237,1.2022806-.781244,2.290575-.6639149,3.5600965-.0368263,2.3163315,1.1442463,4.6500898,2.3768319,7.1188231,3.0525839,2.3277849.637172,3.469346,1.817039,4.0057388,4.1160534,1.1207914,4.8039712,1.2071579,4.7434708,6.1740527,4.499332,1.2353805-.0607196,1.8901436-.4280511,2.1045802-1.6970795.2101621-1.2433266.6974532-2.4396887.9087661-3.6829605.2925829-1.7210823,1.3592857-2.4777207,2.9183212-3.0111543,2.3873537-.8168647,4.8205211-1.6340034,7.0111938-2.8522312,1.980675-1.1015563,3.5197082-1.0452756,5.4118246.1350298,4.4138972,2.7532056,4.4444762,2.660537,7.8716801-1.2152685.7107698-.8038221.9563334-1.4629693.2610723-2.4097673-.645447-.8789543-1.0597978-1.9289976-1.7146158-2.7993481-1.3501887-1.794735-1.3276655-3.442055-.1483465-5.3917126,1.0607295-1.7536342,1.9799626-3.705429,2.4280161-5.6902688.6341032-2.8091027,2.1173488-4.1304113,4.9160942-4.6949718,4.1864179-.8444844,4.333504-1.3312823,4.0244808-5.6561278Z" fill="#a8a8a8" stroke-width="0"/>
  <rect x="43.8743435" y="103.2366139" width="31.4648747" height="31.4648747" rx="15.7324216" ry="15.7324216" fill="#231f20" stroke-width="0"/>
</svg>