<?xml version="1.0" encoding="UTF-8"?>
<svg id="Layer_1" data-name="Layer 1" xmlns="http://www.w3.org/2000/svg" version="1.1" viewBox="0 0 256 256">
  <defs>
    <style>
      .cls-1 {
        fill: #000;
        stroke-width: 0px;
      }
    </style>
  </defs>
  <g>
    <path class="cls-1" d="M179.3,194c-1.2-.6-2.4-.9-3.7-.9h-7.3l-1.7,14.2h4.5c1.2,0,2.1,0,2.9-.3.8,0,1.7-.3,2.6-.6.9-.3,1.7-.6,2.2-.9,1-.9,1.9-1.5,2.5-2.4.1-.9.8-2.1,1-3.6.2-1.2,0-2.4-.7-3.4-.7-.9-1.4-1.6-2.2-2.2Z"/>
    <path class="cls-1" d="M241.4,162.7c-.9-.6-2.2-1.2-3.5-1.2H16.7c-1.3,0-2.6.3-3.5,1.2-.9.6-1.3,1.7-1.3,2.6l19,77.1c.4,1.4,2.2,2.6,4.9,2.6h183.2c2.6,0,4.4-1.2,4.9-2.6l19-77.1c0-1.2-.4-2-1.3-2.6ZM65.8,229.1l-1.6-7.7,20.1-28.3h-24.9l-2-9.8h43.7l.8,9.8-21.7,28h25.5l.6,8h-40.4ZM143.5,192.4h-8.2l-.7,29.5h7.4l-.3,7.2h-27.5l-.3-7.2h7.4l-.7-29.5h-8.2l-.4-9.1h31.8s-.4,9.1-.4,9.1ZM196.6,199.3c-.5,2.1-1.3,4.2-2.6,6.3-1.2,2-2.8,3.5-4.3,4.9-1,.8-2.3,1.4-3.3,2.3-1.3.6-2.6,1.1-3.9,1.7-1.3.6-2.9.8-4.6,1.1-1.6.3-3.2.3-5.2.3h-6.8l-1.7,13.4h-12.6l3.7-45.4h22.9c3.5,0,6.1.3,8.6,1,2.5.7,4.6,1.3,6.1,2.6,1.9,1.3,3.3,2.9,4.1,5.2-.4,1.9,0,4.1-.6,6.8Z"/>
  </g>
  <g>
    <path class="cls-1" d="M145.9,149.3c.5,0,.8-.1.8-.2l18.5-22.9h-38.5l18.2,22.9c0,0,.5.2,1,.2Z"/>
    <path class="cls-1" d="M170,126.2l-20.4,25.2c-.7.9-2,1.5-3.5,1.6,0,0-.2,0-.3,0-1.5,0-2.9-.6-3.8-1.5l-20.1-25.3H57.8v30.4h138.6v-30.4h-26.3Z"/>
  </g>
  <path class="cls-1" d="M159.7,15.1h-35.5v56.7h43.7V22.9s-8.1-7.9-8.1-7.9ZM158.7,58.9h-25.5c-2,0-2-4.4,0-4.4h25.5c2,0,2,4.4,0,4.4ZM158.7,50.2h-25.5c-2,0-2-4.4,0-4.4h25.5c2,0,2,4.4,0,4.4ZM158.7,41.5h-25.5c-2,0-2-4.4,0-4.4h25.5c2,0,2,4.4,0,4.4ZM158.7,32h-25.5c-2,0-2-4.4,0-4.4h25.5c2,0,2,4.4,0,4.4Z"/>
  <path class="cls-1" d="M88,10.7l-34,9.9,15.8,54.3,41.8-12.2-13.6-46.7s-10-5.3-10-5.3ZM99.2,52.9l-24.4,7.1c-1.9.6-3.2-3.7-1.2-4.2l24.4-7.1c1.9-.6,3.2,3.7,1.2,4.2ZM96.8,44.6l-24.4,7.1c-1.9.6-3.2-3.7-1.2-4.2l24.4-7.1c1.9-.6,3.2,3.7,1.2,4.2ZM94.4,36.2l-24.4,7.1c-1.9.6-3.2-3.7-1.2-4.2l24.4-7.1c1.9-.6,3.2,3.7,1.2,4.2ZM91.7,27.2l-24.4,7.1c-1.9.6-3.2-3.7-1.2-4.2l24.4-7.1c1.9-.6,3.2,3.7,1.2,4.2Z"/>
  <path class="cls-1" d="M230,23.1l-33.5-9.3-14.9,53.4,41.1,11.5,12.8-46s-5.6-9.5-5.6-9.5ZM217.5,64.1l-24-6.7c-1.9-.5-.8-4.7,1.2-4.1l24,6.7c1.9.5.8,4.7-1.2,4.1ZM219.7,55.9l-24-6.7c-1.9-.5-.8-4.7,1.2-4.1l24,6.7c1.9.5.8,4.7-1.2,4.1ZM222,47.7l-24-6.7c-1.9-.5-.8-4.7,1.2-4.1l24,6.7c1.9.5.8,4.7-1.2,4.1ZM224.5,38.8l-24-6.7c-1.9-.5-.8-4.7,1.2-4.1l24,6.7c1.9.5.8,4.7-1.2,4.1Z"/>
  <path class="cls-1" d="M174.6,114.6c0-.1-.5-.6-.8-.6h-19.4s.2-36.5.2-36.5c-.4-.3-1.7-.8-3.6-.9h-9.6c-1.9-.1-3.2.5-3.6.8l-.2,36.6h-19.3s0,0,0,0c-.4,0-.7.3-.8.4l27.5,34.5c0,0,.5.2,1,.2.5,0,.8-.1.8-.2l27.9-34.5Z"/>
  <g>
    <path class="cls-1" d="M173.8,114.1h-19.4s0-8.1,0-8.1h-16.8v8.2s-19.4,0-19.4,0h0c-.4,0-.7.3-.8.4l5.1,6.5h46.9l5.1-6.4c0-.1-.5-.6-.8-.6Z"/>
    <path class="cls-1" d="M114.4,116.6c-.8-1.4-.8-2.7-.2-3.9.8-1.4,2.4-2.3,4.1-2.3h15.7s0-4.5,0-4.5h-31.2l-9.7-10.4c-1.3-1.4-3.5-2-5.7-2h-53c-4,0-6.6,2-6.6,4.3v58.8h15.5v-35.6h74.7l-3.5-4.4Z"/>
    <path class="cls-1" d="M221.1,105.9h-62.9v4.4s15.6,0,15.6,0c1.6,0,3.3,1,4,2.5.7,1.3.6,2.8-.3,4l-3.3,4.1h38v35.3h15.5v-46.1c0-2.6-3.1-4.3-6.6-4.3Z"/>
  </g>
</svg>